<?xml version="1.0" encoding="UTF-8" standalone="no"?>
<!-- Created with Inkscape (http://www.inkscape.org/) -->

<svg
   width="143.79601mm"
   height="30.341mm"
   viewBox="0 0 143.796 30.340999"
   version="1.1"
   id="svg1135"
   inkscape:version="1.2.1 (9c6d41e410, 2022-07-14)"
   sodipodi:docname="50UC_RGB_title.svg"
   xmlns:inkscape="http://www.inkscape.org/namespaces/inkscape"
   xmlns:sodipodi="http://sodipodi.sourceforge.net/DTD/sodipodi-0.dtd"
   xmlns="http://www.w3.org/2000/svg"
   xmlns:svg="http://www.w3.org/2000/svg">
  <sodipodi:namedview
     id="namedview1137"
     pagecolor="#ffffff"
     bordercolor="#000000"
     borderopacity="0.25"
     inkscape:showpageshadow="2"
     inkscape:pageopacity="0.0"
     inkscape:pagecheckerboard="0"
     inkscape:deskcolor="#d1d1d1"
     inkscape:document-units="mm"
     showgrid="false"
     inkscape:zoom="0.95286938"
     inkscape:cx="264.46437"
     inkscape:cy="51.948358"
     inkscape:window-width="1280"
     inkscape:window-height="650"
     inkscape:window-x="1913"
     inkscape:window-y="-6"
     inkscape:window-maximized="1"
     inkscape:current-layer="layer1" />
  <defs
     id="defs1132">
    <clipPath
       clipPathUnits="userSpaceOnUse"
       id="clipPath18">
      <path
         d="M 0,226.772 H 566.929 V 0 H 0 Z"
         id="path16" />
    </clipPath>
    <rect
       x="-616.06683"
       y="56.577568"
       width="523.86633"
       height="77.532219"
       id="rect512" />
  </defs>
  <g
     inkscape:label="Capa 1"
     inkscape:groupmode="layer"
     id="layer1"
     transform="translate(-32.038539,-22.825302)">
    <g
       id="g12"
       transform="matrix(0.1871256,0,0,-0.1871256,87.469961,59.379151)"
       style="display:inline;stroke-width:1.88525">
      <g
         id="g14"
         clip-path="url(#clipPath18)"
         style="stroke-width:1.88525">
        <g
           id="g20"
           transform="translate(172.4706,114.961)"
           style="stroke-width:1.88525">
          <path
             d="m 0,0 c 0,-18.269 -15.369,-32.043 -35.958,-32.043 -13.339,0 -25.228,5.945 -33.782,16.239 l 3.625,4.64 c 7.104,-9.135 17.833,-14.934 29.867,-14.934 17.254,0 29.723,11.309 29.723,26.098 0,14.789 -11.889,25.953 -28.273,25.953 -9.569,0 -19.283,-3.915 -25.228,-9.569 l -5.365,1.885 4.786,51.47 H -6.96 V 63.94 h -48.427 l -3.914,-40.597 c 5.945,4.929 15.514,8.41 25.083,8.41 C -14.645,31.753 0,18.124 0,0"
             style="fill:#92b7bc;fill-opacity:1;fill-rule:nonzero;stroke:none;stroke-width:1.88525"
             id="path22" />
        </g>
        <g
           id="g24"
           transform="translate(249.8099,134.6797)"
           style="stroke-width:1.88525">
          <path
             d="m 0,0 c 0,26.968 -12.904,45.816 -31.317,45.816 -18.269,0 -31.318,-18.848 -31.318,-45.816 0,-26.968 13.049,-45.816 31.318,-45.816 C -12.904,-45.816 0,-26.968 0,0 m -69.015,0 c 0,30.593 15.514,51.761 37.698,51.761 C -9.134,51.761 6.38,30.593 6.38,0 c 0,-30.593 -15.514,-51.762 -37.697,-51.762 -22.184,0 -37.698,21.169 -37.698,51.762"
             style="fill:#92b7bc;fill-opacity:1;fill-rule:nonzero;stroke:none;stroke-width:1.88525"
             id="path26" />
        </g>
        <g
           id="g28"
           transform="translate(273.4774,123.8057)"
           style="stroke-width:1.88525">
          <path
             d="M 0,0 V 60.895 H 27.693 V 0.435 c 0,-8.41 6.235,-14.644 14.644,-14.644 8.409,0 14.643,6.234 14.643,14.644 v 60.46 H 84.674 V 0 c 0,-23.344 -18.269,-40.888 -42.337,-40.888 C 18.269,-40.888 0,-23.344 0,0"
             style="fill:#055d67;fill-opacity:1;fill-rule:nonzero;stroke:none;stroke-width:1.88525"
             id="path30" />
        </g>
        <g
           id="g32"
           transform="translate(366.4754,134.6797)"
           style="stroke-width:1.88525">
          <path
             d="m 0,0 c 0,29.433 22.908,51.761 53.211,51.761 18.993,0 35.087,-8.699 44.512,-22.474 L 73.799,14.499 C 69.305,21.023 61.91,25.083 53.211,25.083 39.146,25.083 28.418,14.354 28.418,0 c 0,-14.354 10.728,-25.083 24.793,-25.083 8.699,0 16.094,4.06 20.588,10.584 L 97.723,-29.288 C 88.298,-43.063 72.204,-51.762 53.211,-51.762 22.908,-51.762 0,-29.433 0,0"
             style="fill:#055d67;fill-opacity:1;fill-rule:nonzero;stroke:none;stroke-width:1.88525"
             id="path34" />
        </g>
        <g
           id="g36"
           transform="translate(103.1981,48.3994)"
           style="stroke-width:1.88525">
          <path
             d="M 0,0 V 12.527 H 1.819 V 0 c 0,-3.579 2.7,-6.308 6.337,-6.308 3.608,0 6.307,2.729 6.307,6.308 v 12.527 h 1.819 V 0 c 0,-4.606 -3.52,-8.068 -8.126,-8.068 C 3.521,-8.068 0,-4.606 0,0"
             style="fill:#055d67;fill-opacity:1;fill-rule:nonzero;stroke:none;stroke-width:1.88525"
             id="path38" />
        </g>
        <g
           id="g40"
           transform="translate(137.6708,49.749)"
           style="stroke-width:1.88525">
          <path
             d="m 0,0 v -9.065 h -1.702 v 8.566 c 0,3.08 -2.025,5.104 -5.075,5.104 -3.169,0 -5.311,-2.052 -5.311,-5.163 v -8.507 h -1.701 V 5.897 h 1.701 V 3.081 c 1.116,2.023 3.169,3.167 5.81,3.167 C -2.523,6.248 0,3.784 0,0"
             style="fill:#055d67;fill-opacity:1;fill-rule:nonzero;stroke:none;stroke-width:1.88525"
             id="path42" />
        </g>
        <path
           d="m 142.13,55.646 h 1.701 V 40.683 h -1.701 z m -0.383,4.752 c 0,0.675 0.559,1.203 1.233,1.203 0.704,0 1.262,-0.528 1.262,-1.203 0,-0.704 -0.558,-1.232 -1.262,-1.232 -0.674,0 -1.233,0.528 -1.233,1.232"
           style="fill:#055d67;fill-opacity:1;fill-rule:nonzero;stroke:none;stroke-width:1.88525"
           id="path44" />
        <g
           id="g46"
           transform="translate(162.225,55.6465)"
           style="stroke-width:1.88525">
          <path
             d="M 0,0 -6.806,-14.963 H -8.654 L -15.46,0 h 1.966 L -7.686,-12.997 -1.907,0 Z"
             style="fill:#055d67;fill-opacity:1;fill-rule:nonzero;stroke:none;stroke-width:1.88525"
             id="path48" />
        </g>
        <g
           id="g50"
           transform="translate(165.1004,48.957)"
           style="stroke-width:1.88525">
          <path
             d="M 0,0 H 11.999 C 11.646,3.197 9.183,5.456 5.985,5.456 2.787,5.456 0.353,3.197 0,0 M 13.729,-1.526 H 0 c 0.353,-3.227 2.934,-5.515 6.366,-5.515 2.436,0 4.518,1.174 5.603,2.846 l 1.204,-0.998 c -1.439,-2.112 -3.932,-3.433 -6.866,-3.433 -4.635,0 -8.097,3.404 -8.097,7.863 0,4.459 3.345,7.803 7.804,7.803 4.43,0 7.775,-3.344 7.775,-7.833 0,-0.233 -0.03,-0.498 -0.06,-0.733"
             style="fill:#055d67;fill-opacity:1;fill-rule:nonzero;stroke:none;stroke-width:1.88525"
             id="path52" />
        </g>
        <g
           id="g54"
           transform="translate(190.2435,55.8799)"
           style="stroke-width:1.88525">
          <path
             d="m 0,0 v -1.76 h -0.44 c -3.433,0 -5.633,-2.229 -5.633,-5.72 v -7.716 h -1.701 v 14.963 h 1.701 v -3.14 C -4.987,-1.262 -2.992,0 -0.44,0 Z"
             style="fill:#055d67;fill-opacity:1;fill-rule:nonzero;stroke:none;stroke-width:1.88525"
             id="path56" />
        </g>
        <g
           id="g58"
           transform="translate(191.8285,42.708)"
           style="stroke-width:1.88525">
          <path
             d="m 0,0 0.968,1.232 c 1.115,-1.261 2.845,-2.054 4.9,-2.054 2.346,0 4.107,1.056 4.107,2.7 0,1.818 -1.966,2.347 -4.137,2.875 -2.523,0.645 -5.339,1.379 -5.339,4.341 0,2.728 2.551,4.195 5.485,4.195 2.26,0 4.078,-0.879 5.282,-2.082 L 10.297,9.945 c -0.997,1.086 -2.523,1.789 -4.283,1.789 -2.083,0 -3.755,-0.967 -3.755,-2.522 0,-1.849 1.995,-2.376 4.225,-2.904 2.494,-0.617 5.25,-1.321 5.25,-4.254 0,-2.787 -2.551,-4.431 -5.838,-4.431 C 3.374,-2.377 1.32,-1.379 0,0"
             style="fill:#055d67;fill-opacity:1;fill-rule:nonzero;stroke:none;stroke-width:1.88525"
             id="path60" />
        </g>
        <path
           d="m 207.113,55.646 h 1.701 V 40.683 h -1.701 z m -0.382,4.752 c 0,0.675 0.557,1.203 1.233,1.203 0.703,0 1.261,-0.528 1.261,-1.203 0,-0.704 -0.558,-1.232 -1.261,-1.232 -0.676,0 -1.233,0.528 -1.233,1.232"
           style="fill:#055d67;fill-opacity:1;fill-rule:nonzero;stroke:none;stroke-width:1.88525"
           id="path62" />
        <g
           id="g64"
           transform="translate(226.5931,48.1641)"
           style="stroke-width:1.88525">
          <path
             d="m 0,0 c 0,3.521 -2.641,6.19 -6.161,6.19 -3.49,0 -6.131,-2.669 -6.131,-6.19 0,-3.52 2.641,-6.189 6.131,-6.189 C -2.641,-6.189 0,-3.52 0,0 M 1.702,13.643 V -7.48 H 0 v 3.461 c -1.232,-2.317 -3.58,-3.814 -6.454,-3.814 -4.341,0 -7.598,3.374 -7.598,7.833 0,4.46 3.257,7.833 7.598,7.833 2.874,0 5.222,-1.495 6.454,-3.812 v 9.622 z"
             style="fill:#055d67;fill-opacity:1;fill-rule:nonzero;stroke:none;stroke-width:1.88525"
             id="path66" />
        </g>
        <g
           id="g68"
           transform="translate(246.0438,48.1641)"
           style="stroke-width:1.88525">
          <path
             d="m 0,0 c 0,3.521 -2.641,6.19 -6.161,6.19 -3.49,0 -6.131,-2.669 -6.131,-6.19 0,-3.52 2.641,-6.189 6.131,-6.189 C -2.641,-6.189 0,-3.52 0,0 M 1.702,7.482 V -7.48 H 0 v 3.461 c -1.232,-2.317 -3.579,-3.814 -6.454,-3.814 -4.341,0 -7.598,3.374 -7.598,7.833 0,4.46 3.257,7.833 7.598,7.833 2.875,0 5.222,-1.495 6.454,-3.812 v 3.461 z"
             style="fill:#055d67;fill-opacity:1;fill-rule:nonzero;stroke:none;stroke-width:1.88525"
             id="path70" />
        </g>
        <g
           id="g72"
           transform="translate(265.495,48.1641)"
           style="stroke-width:1.88525">
          <path
             d="m 0,0 c 0,3.521 -2.641,6.19 -6.161,6.19 -3.49,0 -6.131,-2.669 -6.131,-6.19 0,-3.52 2.641,-6.189 6.131,-6.189 C -2.641,-6.189 0,-3.52 0,0 M 1.702,13.643 V -7.48 H 0 v 3.461 c -1.232,-2.317 -3.58,-3.814 -6.454,-3.814 -4.342,0 -7.598,3.374 -7.598,7.833 0,4.46 3.256,7.833 7.598,7.833 2.874,0 5.222,-1.495 6.454,-3.812 v 9.622 z"
             style="fill:#055d67;fill-opacity:1;fill-rule:nonzero;stroke:none;stroke-width:1.88525"
             id="path74" />
        </g>
        <g
           id="g76"
           transform="translate(292.5731,48.1641)"
           style="stroke-width:1.88525">
          <path
             d="m 0,0 c 0,3.521 -2.641,6.19 -6.16,6.19 -3.491,0 -6.132,-2.669 -6.132,-6.19 0,-3.52 2.641,-6.189 6.132,-6.189 C -2.641,-6.189 0,-3.52 0,0 M 1.702,13.643 V -7.48 H 0 v 3.461 c -1.231,-2.317 -3.579,-3.814 -6.454,-3.814 -4.341,0 -7.598,3.374 -7.598,7.833 0,4.46 3.257,7.833 7.598,7.833 2.875,0 5.223,-1.495 6.454,-3.812 v 9.622 z"
             style="fill:#055d67;fill-opacity:1;fill-rule:nonzero;stroke:none;stroke-width:1.88525"
             id="path78" />
        </g>
        <g
           id="g80"
           transform="translate(299.7323,48.957)"
           style="stroke-width:1.88525">
          <path
             d="M 0,0 H 11.999 C 11.646,3.197 9.183,5.456 5.985,5.456 2.786,5.456 0.353,3.197 0,0 M 13.729,-1.526 H 0 c 0.353,-3.227 2.934,-5.515 6.366,-5.515 2.436,0 4.518,1.174 5.603,2.846 l 1.204,-0.998 C 11.734,-7.305 9.24,-8.626 6.307,-8.626 c -4.635,0 -8.097,3.404 -8.097,7.863 0,4.459 3.345,7.803 7.804,7.803 4.43,0 7.774,-3.344 7.774,-7.833 0,-0.233 -0.029,-0.498 -0.059,-0.733"
             style="fill:#055d67;fill-opacity:1;fill-rule:nonzero;stroke:none;stroke-width:1.88525"
             id="path82" />
        </g>
        <g
           id="g84"
           transform="translate(323.3495,50.8047)"
           style="stroke-width:1.88525">
          <path
             d="m 0,0 c 0,5.956 4.606,10.474 10.708,10.474 3.814,0 7.041,-1.761 8.948,-4.548 L 15.725,3.492 C 14.64,5.075 12.82,6.102 10.708,6.102 7.275,6.102 4.664,3.492 4.664,0 c 0,-3.491 2.611,-6.103 6.044,-6.103 2.112,0 3.932,1.029 5.017,2.612 l 3.931,-2.435 C 17.749,-8.713 14.522,-10.474 10.708,-10.474 4.606,-10.474 0,-5.955 0,0"
             style="fill:#055d67;fill-opacity:1;fill-rule:nonzero;stroke:none;stroke-width:1.88525"
             id="path86" />
        </g>
        <g
           id="g88"
           transform="translate(355.9139,48.1641)"
           style="stroke-width:1.88525">
          <path
             d="M 0,0 C 0,2.113 -1.555,3.697 -3.667,3.697 -5.75,3.697 -7.305,2.113 -7.305,0 c 0,-2.111 1.555,-3.695 3.638,-3.695 C -1.555,-3.695 0,-2.111 0,0 M 4.283,7.482 V -7.48 H 0 v 1.497 c -1.145,-1.174 -2.699,-1.85 -4.519,-1.85 -4.106,0 -7.215,3.374 -7.215,7.833 0,4.46 3.109,7.833 7.215,7.833 1.82,0 3.374,-0.674 4.519,-1.848 v 1.497 z"
             style="fill:#055d67;fill-opacity:1;fill-rule:nonzero;stroke:none;stroke-width:1.88525"
             id="path90" />
        </g>
        <g
           id="g92"
           transform="translate(378.1512,50.3067)"
           style="stroke-width:1.88525">
          <path
             d="m 0,0 v -9.623 h -4.283 v 8.186 c 0,1.818 -1.144,2.992 -2.904,2.992 -1.819,0 -3.081,-1.203 -3.081,-3.052 v -8.126 h -4.283 V 5.34 h 4.283 V 3.843 c 1.173,1.202 2.7,1.847 4.547,1.847 C -2.288,5.69 0,3.433 0,0"
             style="fill:#055d67;fill-opacity:1;fill-rule:nonzero;stroke:none;stroke-width:1.88525"
             id="path94" />
        </g>
        <g
           id="g96"
           transform="translate(386.3084,51.7442)"
           style="stroke-width:1.88525">
          <path
             d="m 0,0 v -5.486 c 0,-1.144 0.616,-1.789 1.877,-1.789 0.764,0 1.408,0.233 1.966,0.528 v -4.021 c -0.88,-0.439 -1.731,-0.645 -2.875,-0.645 -3.638,0 -5.251,2.142 -5.251,5.223 V 0 h -2.259 v 3.902 h 2.259 V 7.598 H 0 V 3.902 H 3.843 V 0 Z"
             style="fill:#055d67;fill-opacity:1;fill-rule:nonzero;stroke:none;stroke-width:1.88525"
             id="path98" />
        </g>
        <g
           id="g100"
           transform="translate(403.3241,48.1641)"
           style="stroke-width:1.88525">
          <path
             d="M 0,0 C 0,2.113 -1.555,3.697 -3.668,3.697 -5.75,3.697 -7.306,2.113 -7.306,0 c 0,-2.111 1.556,-3.695 3.638,-3.695 C -1.555,-3.695 0,-2.111 0,0 M 4.283,7.482 V -7.48 H 0 v 1.497 c -1.145,-1.174 -2.699,-1.85 -4.519,-1.85 -4.106,0 -7.215,3.374 -7.215,7.833 0,4.46 3.109,7.833 7.215,7.833 1.82,0 3.374,-0.674 4.519,-1.848 v 1.497 z"
             style="fill:#055d67;fill-opacity:1;fill-rule:nonzero;stroke:none;stroke-width:1.88525"
             id="path102" />
        </g>
        <g
           id="g104"
           transform="translate(422.6278,48.1641)"
           style="stroke-width:1.88525">
          <path
             d="m 0,0 c 0,2.113 -1.555,3.697 -3.668,3.697 -2.111,0 -3.666,-1.584 -3.666,-3.697 0,-2.111 1.555,-3.695 3.666,-3.695 C -1.555,-3.695 0,-2.111 0,0 m 4.4,0 c 0,-4.459 -3.08,-7.833 -7.216,-7.833 -1.819,0 -3.373,0.676 -4.518,1.85 V -7.48 h -4.283 v 21.123 h 4.283 V 5.985 c 1.145,1.174 2.699,1.848 4.518,1.848 C 1.32,7.833 4.4,4.46 4.4,0"
             style="fill:#055d67;fill-opacity:1;fill-rule:nonzero;stroke:none;stroke-width:1.88525"
             id="path106" />
        </g>
        <g
           id="g108"
           transform="translate(438.5887,55.8799)"
           style="stroke-width:1.88525">
          <path
             d="m 0,0 v -4.4 h -0.646 c -2.611,0 -4.048,-1.496 -4.048,-3.814 v -6.982 h -4.284 v 14.963 h 4.284 V -1.936 C -3.638,-0.704 -2.26,0 -0.646,0 Z"
             style="fill:#055d67;fill-opacity:1;fill-rule:nonzero;stroke:none;stroke-width:1.88525"
             id="path110" />
        </g>
        <path
           d="m 440.672,55.646 h 4.283 V 40.683 h -4.283 z m -0.5,4.547 c 0,1.496 1.145,2.611 2.64,2.611 1.527,0 2.671,-1.115 2.671,-2.611 0,-1.525 -1.144,-2.64 -2.671,-2.64 -1.495,0 -2.64,1.115 -2.64,2.64"
           style="fill:#055d67;fill-opacity:1;fill-rule:nonzero;stroke:none;stroke-width:1.88525"
           id="path112" />
        <g
           id="g114"
           transform="translate(459.2704,48.1641)"
           style="stroke-width:1.88525">
          <path
             d="M 0,0 C 0,2.113 -1.555,3.697 -3.667,3.697 -5.75,3.697 -7.305,2.113 -7.305,0 c 0,-2.111 1.555,-3.695 3.638,-3.695 C -1.555,-3.695 0,-2.111 0,0 M 4.283,7.482 V -7.48 H 0 v 1.497 c -1.144,-1.174 -2.698,-1.85 -4.518,-1.85 -4.107,0 -7.216,3.374 -7.216,7.833 0,4.46 3.109,7.833 7.216,7.833 1.82,0 3.374,-0.674 4.518,-1.848 v 1.497 z"
             style="fill:#055d67;fill-opacity:1;fill-rule:nonzero;stroke:none;stroke-width:1.88525"
             id="path116" />
        </g>
      </g>
    </g>
    <text
       xml:space="preserve"
       transform="matrix(0.26458333,0,0,0.26458333,196.86137,15.253161)"
       id="text510"
       style="font-weight:100;font-size:48px;font-family:Lufga;-inkscape-font-specification:'Lufga, Thin';text-align:justify;white-space:pre;shape-inside:url(#rect512);display:inline;fill:none;stroke:#ff0000;stroke-width:1.88976;stroke-linecap:square"><tspan
         x="-616.06641"
         y="100.01812"
         id="tspan1556"><tspan
           style="font-weight:normal;-inkscape-font-specification:Lufga"
           id="tspan1554">pypacity</tspan></tspan></text>
  </g>
</svg>
